<svg xmlns="http://www.w3.org/2000/svg"  viewBox="0 0 50 50" width="50px" height="50px"><path d="M 25 3 C 16.898438 3 8 12.773438 8 21.6875 C 8 29.800781 16.042969 47 25 47 C 33.78125 47 42 29.589844 42 21.6875 C 42 13.523438 33.757813 3 25 3 Z M 24.90625 8 C 29.105469 8 33.8125 11.8125 34.8125 16.8125 C 36.710938 17.613281 38 19.707031 38 21.40625 C 37.800781 25.105469 35.601563 24.914063 33.5 26.8125 C 32.699219 27.613281 31.695313 29.992188 31.09375 31.59375 C 28.992188 36.292969 28.507813 42 24.90625 42 C 21.304688 42 20.914063 36.300781 18.8125 31.5 C 18.210938 30 17.207031 27.488281 16.40625 26.6875 C 14.304688 24.886719 12 25.011719 12 21.3125 C 12 19.613281 13.085938 17.488281 15.1875 16.6875 C 15.988281 11.6875 20.707031 8 24.90625 8 Z M 27.71875 14.09375 C 27.617188 14.105469 27.519531 14.125 27.40625 14.1875 C 26.105469 14.789063 26.792969 17.394531 27.09375 18.59375 C 27.792969 20.695313 29.101563 22.8125 31.5 22.8125 C 32.800781 22.8125 34.292969 21.304688 33.59375 19.90625 C 33.195313 19.207031 32.386719 18.992188 31.6875 18.59375 C 30.6875 17.992188 29.8125 17.011719 29.3125 15.8125 C 28.964844 15.023438 28.441406 14 27.71875 14.09375 Z M 22.28125 14.1875 C 21.558594 14.09375 21.039063 15.117188 20.6875 15.90625 C 20.085938 17.105469 19.3125 18.085938 18.3125 18.6875 C 17.613281 19.1875 16.707031 19.304688 16.40625 19.90625 C 15.707031 21.304688 17.199219 22.8125 18.5 22.8125 C 20.898438 22.8125 22.207031 20.6875 22.90625 18.6875 C 23.207031 17.488281 23.894531 14.914063 22.59375 14.3125 C 22.480469 14.25 22.382813 14.199219 22.28125 14.1875 Z M 25 20.09375 C 24.601563 20.09375 22.488281 24.40625 23.1875 24.40625 C 24.085938 24.40625 24.5 23.5 25 23.5 C 25.5 23.5 26.210938 24.40625 26.8125 24.40625 C 27.710938 24.40625 25.601563 20.09375 25 20.09375 Z M 24.8125 25.90625 C 22.8125 25.90625 22.5 26.8125 22.5 27.8125 C 22.5 28.414063 23.207031 31.511719 23.40625 33.8125 C 23.40625 36.3125 24.101563 39 25 39 C 26 39 26.492188 36.8125 26.59375 34.3125 C 26.695313 31.113281 27.601563 29.101563 27.5 28 C 27.5 27.398438 26.8125 25.90625 24.8125 25.90625 Z"/></svg>